<mxfile host="app.diagrams.net" modified="2023-06-14T17:02:49.215Z" agent="Mozilla/5.0 (Windows NT 10.0; Win64; x64) AppleWebKit/537.36 (KHTML, like Gecko) Chrome/114.0.0.0 Safari/537.36" etag="43YFQrYisXddmWu-DQ6I" version="21.3.8" type="github">
  <diagram id="C5RBs43oDa-KdzZeNtuy" name="Page-1">
    <mxGraphModel dx="766" dy="790" grid="1" gridSize="10" guides="1" tooltips="1" connect="1" arrows="1" fold="1" page="1" pageScale="1" pageWidth="827" pageHeight="1169" math="0" shadow="0">
      <root>
        <mxCell id="WIyWlLk6GJQsqaUBKTNV-0" />
        <mxCell id="WIyWlLk6GJQsqaUBKTNV-1" parent="WIyWlLk6GJQsqaUBKTNV-0" />
        <mxCell id="xewsJjiK1BAN4hkDJKhY-4" value="" style="edgeStyle=orthogonalEdgeStyle;rounded=0;orthogonalLoop=1;jettySize=auto;html=1;" edge="1" parent="WIyWlLk6GJQsqaUBKTNV-1" source="xewsJjiK1BAN4hkDJKhY-1" target="xewsJjiK1BAN4hkDJKhY-3">
          <mxGeometry relative="1" as="geometry" />
        </mxCell>
        <mxCell id="xewsJjiK1BAN4hkDJKhY-1" value="START" style="ellipse;whiteSpace=wrap;html=1;" vertex="1" parent="WIyWlLk6GJQsqaUBKTNV-1">
          <mxGeometry x="30" y="20" width="90" height="40" as="geometry" />
        </mxCell>
        <mxCell id="xewsJjiK1BAN4hkDJKhY-2" value="END" style="ellipse;whiteSpace=wrap;html=1;" vertex="1" parent="WIyWlLk6GJQsqaUBKTNV-1">
          <mxGeometry x="30" y="545" width="90" height="40" as="geometry" />
        </mxCell>
        <mxCell id="xewsJjiK1BAN4hkDJKhY-6" value="" style="edgeStyle=orthogonalEdgeStyle;rounded=0;orthogonalLoop=1;jettySize=auto;html=1;" edge="1" parent="WIyWlLk6GJQsqaUBKTNV-1" source="xewsJjiK1BAN4hkDJKhY-3" target="xewsJjiK1BAN4hkDJKhY-5">
          <mxGeometry relative="1" as="geometry" />
        </mxCell>
        <mxCell id="xewsJjiK1BAN4hkDJKhY-3" value="String [ ] [ ] credentials = new String [10] [4];" style="whiteSpace=wrap;html=1;" vertex="1" parent="WIyWlLk6GJQsqaUBKTNV-1">
          <mxGeometry x="15" y="90" width="120" height="60" as="geometry" />
        </mxCell>
        <mxCell id="xewsJjiK1BAN4hkDJKhY-8" value="" style="edgeStyle=orthogonalEdgeStyle;rounded=0;orthogonalLoop=1;jettySize=auto;html=1;" edge="1" parent="WIyWlLk6GJQsqaUBKTNV-1" source="xewsJjiK1BAN4hkDJKhY-5" target="xewsJjiK1BAN4hkDJKhY-7">
          <mxGeometry relative="1" as="geometry" />
        </mxCell>
        <mxCell id="xewsJjiK1BAN4hkDJKhY-5" value="Print homepage" style="shape=process;whiteSpace=wrap;html=1;backgroundOutline=1;" vertex="1" parent="WIyWlLk6GJQsqaUBKTNV-1">
          <mxGeometry x="15" y="180" width="120" height="60" as="geometry" />
        </mxCell>
        <mxCell id="xewsJjiK1BAN4hkDJKhY-10" value="" style="edgeStyle=orthogonalEdgeStyle;rounded=0;orthogonalLoop=1;jettySize=auto;html=1;" edge="1" parent="WIyWlLk6GJQsqaUBKTNV-1" source="xewsJjiK1BAN4hkDJKhY-7" target="xewsJjiK1BAN4hkDJKhY-9">
          <mxGeometry relative="1" as="geometry" />
        </mxCell>
        <mxCell id="xewsJjiK1BAN4hkDJKhY-16" value="" style="edgeStyle=orthogonalEdgeStyle;rounded=0;orthogonalLoop=1;jettySize=auto;html=1;" edge="1" parent="WIyWlLk6GJQsqaUBKTNV-1" source="xewsJjiK1BAN4hkDJKhY-7" target="xewsJjiK1BAN4hkDJKhY-15">
          <mxGeometry relative="1" as="geometry" />
        </mxCell>
        <mxCell id="xewsJjiK1BAN4hkDJKhY-7" value="input == 0" style="rhombus;whiteSpace=wrap;html=1;" vertex="1" parent="WIyWlLk6GJQsqaUBKTNV-1">
          <mxGeometry x="35" y="290" width="80" height="80" as="geometry" />
        </mxCell>
        <mxCell id="xewsJjiK1BAN4hkDJKhY-12" value="" style="edgeStyle=orthogonalEdgeStyle;rounded=0;orthogonalLoop=1;jettySize=auto;html=1;" edge="1" parent="WIyWlLk6GJQsqaUBKTNV-1" source="xewsJjiK1BAN4hkDJKhY-9" target="xewsJjiK1BAN4hkDJKhY-11">
          <mxGeometry relative="1" as="geometry" />
        </mxCell>
        <mxCell id="xewsJjiK1BAN4hkDJKhY-9" value="input == 1" style="rhombus;whiteSpace=wrap;html=1;" vertex="1" parent="WIyWlLk6GJQsqaUBKTNV-1">
          <mxGeometry x="195" y="290" width="80" height="80" as="geometry" />
        </mxCell>
        <mxCell id="xewsJjiK1BAN4hkDJKhY-14" value="" style="edgeStyle=orthogonalEdgeStyle;rounded=0;orthogonalLoop=1;jettySize=auto;html=1;" edge="1" parent="WIyWlLk6GJQsqaUBKTNV-1" source="xewsJjiK1BAN4hkDJKhY-11" target="xewsJjiK1BAN4hkDJKhY-13">
          <mxGeometry relative="1" as="geometry" />
        </mxCell>
        <mxCell id="xewsJjiK1BAN4hkDJKhY-11" value="input == 2" style="rhombus;whiteSpace=wrap;html=1;" vertex="1" parent="WIyWlLk6GJQsqaUBKTNV-1">
          <mxGeometry x="355" y="290" width="80" height="80" as="geometry" />
        </mxCell>
        <mxCell id="xewsJjiK1BAN4hkDJKhY-13" value="input == 3" style="rhombus;whiteSpace=wrap;html=1;" vertex="1" parent="WIyWlLk6GJQsqaUBKTNV-1">
          <mxGeometry x="520" y="290" width="80" height="80" as="geometry" />
        </mxCell>
        <mxCell id="xewsJjiK1BAN4hkDJKhY-17" value="" style="edgeStyle=orthogonalEdgeStyle;rounded=0;orthogonalLoop=1;jettySize=auto;html=1;" edge="1" parent="WIyWlLk6GJQsqaUBKTNV-1" source="xewsJjiK1BAN4hkDJKhY-15" target="xewsJjiK1BAN4hkDJKhY-2">
          <mxGeometry relative="1" as="geometry" />
        </mxCell>
        <mxCell id="xewsJjiK1BAN4hkDJKhY-15" value="Print thank you message" style="whiteSpace=wrap;html=1;" vertex="1" parent="WIyWlLk6GJQsqaUBKTNV-1">
          <mxGeometry x="15" y="440" width="120" height="60" as="geometry" />
        </mxCell>
      </root>
    </mxGraphModel>
  </diagram>
</mxfile>
